<!-- icon666.com - MILLIONS OF FREE VECTOR ICONS --><svg xmlns="http://www.w3.org/2000/svg" viewBox="0 0 48 48"><g id="cage"><path d="M41,46H7a2.0023,2.0023,0,0,1-2-2V42a2.0023,2.0023,0,0,1,2-2H41a2.0023,2.0023,0,0,1,2,2v2A2.0023,2.0023,0,0,1,41,46ZM7,42v2H41.0015L41,42Z" fill="#000000" style="fill: rgb(255, 255, 255);"></path><path d="M24,7a3,3,0,1,1,3-3A3.0033,3.0033,0,0,1,24,7Zm0-4a1,1,0,1,0,1,1A1.0009,1.0009,0,0,0,24,3Z" fill="#000000" style="fill: rgb(255, 255, 255);"></path><path d="M32,42a1,1,0,0,1-1-1V25.88A18.9541,18.9541,0,0,0,23.46,10.8a1,1,0,0,1,1.2011-1.6A20.9652,20.9652,0,0,1,33,25.88V41A1,1,0,0,1,32,42Z" fill="#000000" style="fill: rgb(255, 255, 255);"></path><path d="M16,42a1,1,0,0,1-1-1V25.88A20.9652,20.9652,0,0,1,23.3394,9.2a1,1,0,0,1,1.2011,1.6A18.9541,18.9541,0,0,0,17,25.88V41A1,1,0,0,1,16,42Z" fill="#000000" style="fill: rgb(255, 255, 255);"></path><path d="M40,42H8a1,1,0,0,1-1-1V25.875A16.8944,16.8944,0,0,1,23.875,9h.25A16.8944,16.8944,0,0,1,41,25.875V41A1,1,0,0,1,40,42ZM9,40H39V25.875A14.8919,14.8919,0,0,0,24.125,11h-.25A14.8919,14.8919,0,0,0,9,25.875Z" fill="#000000" style="fill: rgb(255, 255, 255);"></path><path d="M24,37.0605a1.8144,1.8144,0,0,1-1.2856-.53L16.88,30.6953a5.7832,5.7832,0,0,1-.5083-7.7A5.63,5.63,0,0,1,24,21.99a5.737,5.737,0,0,1,3.5435-1.0459,5.662,5.662,0,0,1,4.0849,2.0508h0a5.7832,5.7832,0,0,1-.5083,7.7l-5.834,5.834A1.8134,1.8134,0,0,1,24,37.0605Zm-3.2783-14.122c-.0567,0-.1138.001-.17.0039a3.6129,3.6129,0,0,0-2.6387,1.3262,3.771,3.771,0,0,0,.3813,5.0127L24,34.9873l5.7061-5.706a3.771,3.771,0,0,0,.3813-5.0127,3.6129,3.6129,0,0,0-2.6387-1.3262,3.651,3.651,0,0,0-2.7417,1.0605.9994.9994,0,0,1-1.414,0A3.6447,3.6447,0,0,0,20.7217,22.9385Z" fill="#000000" style="fill: rgb(255, 255, 255);"></path><path d="M24.06,42a1,1,0,0,1-1-.998L23,6a1,1,0,0,1,2,0v4l.06,30.998A.99.99,0,0,1,24.06,42Z" fill="#000000" style="fill: rgb(255, 255, 255);"></path><path d="M40,28.125H8a1,1,0,0,1,0-2H40a1,1,0,0,1,0,2Z" fill="#000000" style="fill: rgb(255, 255, 255);"></path></g></svg>